<svg width="28" height="28" viewBox="0 0 28 28" fill="none" xmlns="http://www.w3.org/2000/svg">
<path d="M14 18.6667C15.933 18.6667 17.5 17.0997 17.5 15.1667C17.5 13.2337 15.933 11.6667 14 11.6667C12.067 11.6667 10.5 13.2337 10.5 15.1667C10.5 17.0997 12.067 18.6667 14 18.6667Z" stroke="white" stroke-width="2"/>
<path d="M2.33334 15.5909C2.33334 12.016 2.33334 10.2284 3.2072 8.94437C3.5855 8.3885 4.07162 7.91121 4.63779 7.53979C5.47815 6.98848 6.53023 6.79143 8.14101 6.721C8.90967 6.721 9.57148 6.14913 9.72223 5.40909C9.94835 4.29904 10.9411 3.5 12.094 3.5H15.906C17.0589 3.5 18.0516 4.29904 18.2778 5.40909C18.4286 6.14913 19.0903 6.721 19.859 6.721C21.4698 6.79143 22.5218 6.98848 23.3623 7.53979C23.9283 7.91121 24.4145 8.3885 24.7928 8.94437C25.6667 10.2284 25.6667 12.016 25.6667 15.5909C25.6667 19.1659 25.6667 20.9534 24.7928 22.2375C24.4145 22.7933 23.9283 23.2706 23.3623 23.642C22.0544 24.5 20.2339 24.5 16.5926 24.5H11.4074C7.76622 24.5 5.94562 24.5 4.63779 23.642C4.07162 23.2706 3.5855 22.7933 3.2072 22.2375C2.96038 21.8748 2.78328 21.4719 2.6562 21" stroke="white" stroke-width="2" stroke-linecap="round"/>
<path d="M22.1667 11.6667H21" stroke="white" stroke-width="2" stroke-linecap="round"/>
</svg>
