<svg width="28" height="28" viewBox="0 0 28 28" fill="none" xmlns="http://www.w3.org/2000/svg">
<g clip-path="url(#clip0_163_25)">
<path d="M14 2.33333C20.4433 2.33333 25.6667 7.55667 25.6667 14C25.6667 17.8164 23.8342 21.2047 21.0012 23.3333H23.3333C23.9777 23.3333 24.5 23.8556 24.5 24.5C24.5 25.1443 23.9777 25.6667 23.3333 25.6667H14C7.55668 25.6667 2.33334 20.4433 2.33334 14C2.33334 7.55667 7.55668 2.33333 14 2.33333ZM14 16.3333C12.7113 16.3333 11.6667 17.378 11.6667 18.6667C11.6667 19.9554 12.7113 21 14 21C15.2887 21 16.3333 19.9554 16.3333 18.6667C16.3333 17.378 15.2887 16.3333 14 16.3333ZM9.33334 11.6667C8.04468 11.6667 7.00001 12.7113 7.00001 14C7.00001 15.2887 8.04468 16.3333 9.33334 16.3333C10.622 16.3333 11.6667 15.2887 11.6667 14C11.6667 12.7113 10.622 11.6667 9.33334 11.6667ZM18.6667 11.6667C17.378 11.6667 16.3333 12.7113 16.3333 14C16.3333 15.2887 17.378 16.3333 18.6667 16.3333C19.9554 16.3333 21 15.2887 21 14C21 12.7113 19.9554 11.6667 18.6667 11.6667ZM14 6.99999C12.7113 6.99999 11.6667 8.04466 11.6667 9.33333C11.6667 10.622 12.7113 11.6667 14 11.6667C15.2887 11.6667 16.3333 10.622 16.3333 9.33333C16.3333 8.04466 15.2887 6.99999 14 6.99999Z" fill="white"/>
</g>
<defs>
<clipPath id="clip0_163_25">
<rect width="28" height="28" fill="white"/>
</clipPath>
</defs>
</svg>
