<svg width="28" height="28" viewBox="0 0 28 28" fill="none" xmlns="http://www.w3.org/2000/svg">
<path d="M14 7C7.35001 7 2.33334 9.50833 2.33334 12.8333C2.33334 15.6917 6.05501 17.9433 11.3283 18.5267L10.8383 19.005C10.729 19.1135 10.6422 19.2425 10.583 19.3847C10.5237 19.5268 10.4932 19.6793 10.4932 19.8333C10.4932 19.9873 10.5237 20.1398 10.583 20.282C10.6422 20.4242 10.729 20.5532 10.8383 20.6617C10.9468 20.771 11.0758 20.8578 11.218 20.917C11.3602 20.9763 11.5127 21.0068 11.6667 21.0068C11.8207 21.0068 11.9732 20.9763 12.1153 20.917C12.2575 20.8578 12.3866 20.771 12.495 20.6617L14.8283 18.3283C14.9346 18.2174 15.0178 18.0865 15.0733 17.9433C15.19 17.6593 15.19 17.3407 15.0733 17.0567C15.0178 16.9135 14.9346 16.7826 14.8283 16.6717L12.495 14.3383C12.2753 14.1186 11.9774 13.9952 11.6667 13.9952C11.356 13.9952 11.058 14.1186 10.8383 14.3383C10.6187 14.558 10.4952 14.856 10.4952 15.1667C10.4952 15.4774 10.6187 15.7753 10.8383 15.995L10.9783 16.1233C7.00001 15.5633 4.66668 14 4.66668 12.8333C4.66668 11.41 8.30668 9.33333 14 9.33333C19.6933 9.33333 23.3333 11.41 23.3333 12.8333C23.3333 13.8017 21.6417 15.1667 18.4217 15.8667C18.2693 15.8959 18.1242 15.9552 17.995 16.0411C17.8658 16.1271 17.755 16.2379 17.6692 16.3672C17.5834 16.4965 17.5242 16.6416 17.4952 16.7941C17.4661 16.9465 17.4678 17.1032 17.5 17.255C17.5319 17.4053 17.5931 17.5478 17.6802 17.6744C17.7673 17.801 17.8785 17.9091 18.0075 17.9926C18.1365 18.0761 18.2807 18.1333 18.4319 18.1608C18.5831 18.1884 18.7382 18.1859 18.8883 18.1533C23.1467 17.22 25.6667 15.2367 25.6667 12.8333C25.6667 9.50833 20.65 7 14 7Z" fill="white"/>
</svg>
