<svg width="28" height="28" viewBox="0 0 28 28" fill="none" xmlns="http://www.w3.org/2000/svg">
<path d="M14 10.5L10.5 14M10.5 14L14 17.5M10.5 14L23.3334 14M23.3334 19.544V19.5998C23.3334 20.9066 23.3334 21.5605 23.0791 22.0596C22.8554 22.4987 22.4987 22.8554 22.0596 23.0791C21.5605 23.3334 20.9066 23.3334 19.5998 23.3334L8.39981 23.3334C7.09303 23.3334 6.44051 23.3334 5.94141 23.0791C5.50239 22.8554 5.14446 22.4987 4.92081 22.0596C4.66671 21.561 4.66671 20.9079 4.66671 19.6036L4.66671 8.39584C4.66671 7.09162 4.66671 6.43946 4.92081 5.94082C5.14446 5.50181 5.50239 5.14446 5.94141 4.92081C6.44004 4.66671 7.09221 4.66671 8.39642 4.66671L19.6036 4.66671C20.9079 4.66671 21.561 4.66671 22.0596 4.92081C22.4987 5.14446 22.8554 5.50216 23.0791 5.94117C23.3334 6.44027 23.3334 7.09326 23.3334 8.40004V8.45837" stroke="white" stroke-width="2" stroke-linecap="round" stroke-linejoin="round"/>
</svg>
