<svg width="36" height="36" viewBox="0 0 36 36" fill="none" xmlns="http://www.w3.org/2000/svg">
<path d="M14.625 31.1251L16.8345 32.3526C17.2599 32.589 17.4726 32.707 17.6979 32.7534C17.8973 32.7945 18.1027 32.7945 18.3022 32.7534C18.5274 32.707 18.7401 32.589 19.1655 32.3526L21.375 31.1251M7.875 27.3751L5.73445 26.1859C5.28519 25.9363 5.06052 25.8115 4.89695 25.6339C4.75224 25.477 4.64272 25.2909 4.57572 25.0881C4.5 24.8589 4.5 24.6019 4.5 24.0879V21.7501M4.5 14.2501V11.9123C4.5 11.3983 4.5 11.1414 4.57572 10.9122C4.64272 10.7094 4.75224 10.5233 4.89695 10.3662C5.06052 10.1887 5.28517 10.0639 5.73445 9.81432L7.875 8.62514M14.625 4.87512L16.8345 3.64766C17.2599 3.41132 17.4726 3.29315 17.6979 3.24681C17.8973 3.20582 18.1027 3.20582 18.3022 3.24681C18.5274 3.29315 18.7401 3.41132 19.1655 3.64766L21.375 4.87512M28.125 8.62512L30.2655 9.81432C30.7149 10.0639 30.9394 10.1887 31.1031 10.3662C31.2477 10.5233 31.3573 10.7094 31.4242 10.9122C31.5 11.1414 31.5 11.3983 31.5 11.9123V14.2501M31.5 21.7501V24.0879C31.5 24.6019 31.5 24.8589 31.4242 25.0881C31.3573 25.2909 31.2477 25.477 31.1031 25.6339C30.9394 25.8115 30.7149 25.9363 30.2655 26.1859L28.125 27.3751M14.625 16.1251L18 18.0001M18 18.0001L21.375 16.1251M18 18.0001V21.7501M4.5 10.5001L7.875 12.3751M28.125 12.3751L31.5 10.5001M18 29.2501V33.0001" stroke="black" stroke-width="2.5" stroke-linecap="round" stroke-linejoin="round"/>
</svg>
