<svg width="55" height="55" viewBox="0 0 55 55" fill="none" xmlns="http://www.w3.org/2000/svg">
<rect width="55" height="55" rx="27.5" fill="white"/>
<path d="M24.625 41.1251L26.8345 42.3526C27.2599 42.589 27.4726 42.707 27.6979 42.7534C27.8973 42.7945 28.1027 42.7945 28.3022 42.7534C28.5274 42.707 28.7401 42.589 29.1655 42.3526L31.375 41.1251M17.875 37.3751L15.7344 36.1859C15.2852 35.9363 15.0605 35.8115 14.8969 35.6339C14.7522 35.477 14.6427 35.2909 14.5757 35.0881C14.5 34.8589 14.5 34.6019 14.5 34.0879V31.7501M14.5 24.2501V21.9123C14.5 21.3983 14.5 21.1414 14.5757 20.9122C14.6427 20.7094 14.7522 20.5233 14.8969 20.3662C15.0605 20.1887 15.2852 20.0639 15.7344 19.8143L17.875 18.6251M24.625 14.8751L26.8345 13.6477C27.2599 13.4113 27.4726 13.2931 27.6979 13.2468C27.8973 13.2058 28.1027 13.2058 28.3022 13.2468C28.5274 13.2931 28.7401 13.4113 29.1655 13.6477L31.375 14.8751M38.125 18.6251L40.2655 19.8143C40.7149 20.0639 40.9394 20.1887 41.1031 20.3662C41.2477 20.5233 41.3573 20.7094 41.4242 20.9122C41.5 21.1414 41.5 21.3983 41.5 21.9123V24.2501M41.5 31.7501V34.0879C41.5 34.6019 41.5 34.8589 41.4242 35.0881C41.3573 35.2909 41.2477 35.477 41.1031 35.6339C40.9394 35.8115 40.7149 35.9363 40.2655 36.1859L38.125 37.3751M24.625 26.1251L28 28.0001M28 28.0001L31.375 26.1251M28 28.0001V31.7501M14.5 20.5001L17.875 22.3751M38.125 22.3751L41.5 20.5001M28 39.2501V43.0001" stroke="black" stroke-width="2.5" stroke-linecap="round" stroke-linejoin="round"/>
</svg>
