<svg width="28" height="28" viewBox="0 0 28 28" fill="none" xmlns="http://www.w3.org/2000/svg">
<path d="M3.5 7.4503C3.5 6.88511 3.90294 6.42692 4.4 6.42692L7.50828 6.42637C8.12586 6.40857 8.67069 5.96205 8.88083 5.30147C8.88636 5.2841 8.89271 5.26268 8.91549 5.18495L9.04942 4.72799C9.13138 4.44781 9.20278 4.20371 9.30271 3.98553C9.69744 3.12359 10.4278 2.52504 11.2717 2.3718C11.4853 2.33301 11.7116 2.33317 11.9713 2.33336H16.029C16.2887 2.33317 16.5149 2.33301 16.7285 2.3718C17.5724 2.52504 18.3028 3.12359 18.6975 3.98553C18.7974 4.20371 18.8688 4.44781 18.9507 4.72799L19.0847 5.18495C19.1074 5.26268 19.1139 5.2841 19.1193 5.30147C19.3296 5.96205 19.9824 6.40912 20.6 6.42692H23.6C24.097 6.42692 24.5 6.88511 24.5 7.4503C24.5 8.0155 24.097 8.47369 23.6 8.47369H4.4C3.90294 8.47369 3.5 8.0155 3.5 7.4503Z" fill="#FF5D5D"/>
<path fill-rule="evenodd" clip-rule="evenodd" d="M13.5282 25.6668H14.4718C17.7183 25.6668 19.3416 25.6668 20.397 24.6332C21.4524 23.5997 21.5604 21.9043 21.7763 18.5134L22.0875 13.6275C22.2047 11.7876 22.2633 10.8678 21.7337 10.2848C21.2043 9.7019 20.3102 9.7019 18.522 9.7019H9.47806C7.68982 9.7019 6.7957 9.7019 6.26623 10.2848C5.73677 10.8678 5.79536 11.7876 5.91254 13.6275L6.2237 18.5134C6.43966 21.9043 6.54763 23.5997 7.60305 24.6332C8.65846 25.6668 10.2817 25.6668 13.5282 25.6668ZM11.954 14.22C11.906 13.7139 11.4771 13.3446 10.9963 13.3952C10.5154 13.4458 10.1646 13.8972 10.2127 14.4033L10.796 20.5437C10.8441 21.0498 11.2729 21.4192 11.7537 21.3685C12.2346 21.3179 12.5854 20.8665 12.5374 20.3604L11.954 14.22ZM17.0037 13.3952C17.4846 13.4458 17.8354 13.8972 17.7874 14.4033L17.204 20.5437C17.156 21.0498 16.7271 21.4192 16.2463 21.3685C15.7654 21.3179 15.4146 20.8665 15.4627 20.3604L16.046 14.22C16.0941 13.7139 16.5229 13.3446 17.0037 13.3952Z" fill="#FF5D5D"/>
</svg>
