<svg width="34" height="34" viewBox="0 0 34 34" fill="none" xmlns="http://www.w3.org/2000/svg">
<path d="M31.1932 23.8287L26.759 13.4587C25.9515 11.5604 24.7473 10.4837 23.3732 10.4129C22.0132 10.342 20.6957 11.2912 19.6898 13.1045L16.9982 17.9354C16.4315 18.9554 15.624 19.5646 14.7457 19.6354C13.8531 19.7204 12.9606 19.2529 12.2381 18.3321L11.9264 17.9354C10.9206 16.6746 9.67395 16.0654 8.39895 16.1929C7.12395 16.3204 6.03312 17.1988 5.31062 18.6296L2.85978 23.5171C1.98145 25.2879 2.06645 27.3421 3.10062 29.0138C4.13478 30.6854 5.93395 31.6913 7.90312 31.6913H25.9798C27.8782 31.6913 29.649 30.7421 30.6973 29.1554C31.774 27.5688 31.944 25.5712 31.1932 23.8287Z" fill="white" fill-opacity="0.5"/>
<path d="M9.87394 11.8732C12.5185 11.8732 14.6622 9.72944 14.6622 7.0849C14.6622 4.44038 12.5185 2.29657 9.87394 2.29657C7.22942 2.29657 5.08561 4.44038 5.08561 7.0849C5.08561 9.72944 7.22942 11.8732 9.87394 11.8732Z" fill="white" fill-opacity="0.5"/>
</svg>
