<svg width="55" height="55" viewBox="0 0 55 55" fill="none" xmlns="http://www.w3.org/2000/svg">
<circle cx="27.5" cy="27.5" r="27.5" fill="#FF4C56"/>
<path d="M6.75852 32V23.2727H8.60369V26.8736H12.3494V23.2727H14.1903V32H12.3494V28.3949H8.60369V32H6.75852ZM15.6776 32V25.4545H17.4929V32H15.6776ZM16.5895 24.6108C16.3196 24.6108 16.0881 24.5213 15.8949 24.3423C15.7045 24.1605 15.6094 23.9432 15.6094 23.6903C15.6094 23.4403 15.7045 23.2259 15.8949 23.0469C16.0881 22.8651 16.3196 22.7741 16.5895 22.7741C16.8594 22.7741 17.0895 22.8651 17.2798 23.0469C17.473 23.2259 17.5696 23.4403 17.5696 23.6903C17.5696 23.9432 17.473 24.1605 17.2798 24.3423C17.0895 24.5213 16.8594 24.6108 16.5895 24.6108ZM24.3931 27.321L22.7312 27.4233C22.7028 27.2812 22.6417 27.1534 22.5479 27.0398C22.4542 26.9233 22.3306 26.831 22.1772 26.7628C22.0266 26.6918 21.8462 26.6562 21.636 26.6562C21.3548 26.6562 21.1175 26.7159 20.9244 26.8352C20.7312 26.9517 20.6346 27.108 20.6346 27.304C20.6346 27.4602 20.6971 27.5923 20.8221 27.7003C20.9471 27.8082 21.1616 27.8949 21.4656 27.9602L22.6502 28.1989C23.2866 28.3295 23.761 28.5398 24.0735 28.8295C24.386 29.1193 24.5423 29.5 24.5423 29.9716C24.5423 30.4006 24.4158 30.777 24.163 31.1009C23.913 31.4247 23.5692 31.6776 23.1317 31.8594C22.6971 32.0384 22.1957 32.1278 21.6275 32.1278C20.761 32.1278 20.0707 31.9474 19.5565 31.5866C19.0451 31.223 18.7454 30.7287 18.6573 30.1037L20.4428 30.0099C20.4968 30.2741 20.6275 30.4759 20.8349 30.6151C21.0423 30.7514 21.3079 30.8196 21.6317 30.8196C21.9499 30.8196 22.2056 30.7585 22.3988 30.6364C22.5948 30.5114 22.6942 30.3509 22.6971 30.1548C22.6942 29.9901 22.6246 29.8551 22.4883 29.75C22.3519 29.642 22.1417 29.5597 21.8576 29.5028L20.7241 29.277C20.0849 29.1491 19.609 28.9276 19.2965 28.6122C18.9869 28.2969 18.832 27.8949 18.832 27.4062C18.832 26.9858 18.9457 26.6236 19.1729 26.3196C19.4031 26.0156 19.7255 25.7812 20.1403 25.6165C20.5579 25.4517 21.0465 25.3693 21.6062 25.3693C22.4329 25.3693 23.0835 25.544 23.5579 25.8935C24.0352 26.2429 24.3136 26.7187 24.3931 27.321ZM29.1669 25.4545V26.8182H25.2251V25.4545H29.1669ZM26.12 23.8864H27.9354V29.9886C27.9354 30.1562 27.9609 30.2869 28.0121 30.3807C28.0632 30.4716 28.1342 30.5355 28.2251 30.5724C28.3189 30.6094 28.4268 30.6278 28.549 30.6278C28.6342 30.6278 28.7195 30.6207 28.8047 30.6065C28.8899 30.5895 28.9553 30.5767 29.0007 30.5682L29.2862 31.919C29.1953 31.9474 29.0675 31.9801 28.9027 32.017C28.7379 32.0568 28.5376 32.081 28.3018 32.0895C27.8643 32.1065 27.4808 32.0483 27.1513 31.9148C26.8246 31.7812 26.5703 31.5739 26.3885 31.2926C26.2067 31.0114 26.1172 30.6562 26.12 30.2273V23.8864ZM33.2365 32.1278C32.5746 32.1278 32.0021 31.9872 31.5192 31.706C31.0391 31.4219 30.6683 31.027 30.407 30.5213C30.1456 30.0128 30.0149 29.4233 30.0149 28.7528C30.0149 28.0767 30.1456 27.4858 30.407 26.9801C30.6683 26.4716 31.0391 26.0767 31.5192 25.7955C32.0021 25.5114 32.5746 25.3693 33.2365 25.3693C33.8984 25.3693 34.4695 25.5114 34.9496 25.7955C35.4325 26.0767 35.8047 26.4716 36.0661 26.9801C36.3274 27.4858 36.4581 28.0767 36.4581 28.7528C36.4581 29.4233 36.3274 30.0128 36.0661 30.5213C35.8047 31.027 35.4325 31.4219 34.9496 31.706C34.4695 31.9872 33.8984 32.1278 33.2365 32.1278ZM33.245 30.7216C33.5462 30.7216 33.7976 30.6364 33.9993 30.4659C34.201 30.2926 34.353 30.0568 34.4553 29.7585C34.5604 29.4602 34.6129 29.1207 34.6129 28.7401C34.6129 28.3594 34.5604 28.0199 34.4553 27.7216C34.353 27.4233 34.201 27.1875 33.9993 27.0142C33.7976 26.8409 33.5462 26.7543 33.245 26.7543C32.9411 26.7543 32.6854 26.8409 32.478 27.0142C32.2734 27.1875 32.1186 27.4233 32.0135 27.7216C31.9112 28.0199 31.8601 28.3594 31.8601 28.7401C31.8601 29.1207 31.9112 29.4602 32.0135 29.7585C32.1186 30.0568 32.2734 30.2926 32.478 30.4659C32.6854 30.6364 32.9411 30.7216 33.245 30.7216ZM37.6385 32V25.4545H39.3984V26.5966H39.4666C39.5859 26.1903 39.7862 25.8835 40.0675 25.6761C40.3487 25.4659 40.6726 25.3608 41.0391 25.3608C41.13 25.3608 41.228 25.3665 41.3331 25.3778C41.4382 25.3892 41.5305 25.4048 41.6101 25.4247V27.0355C41.5249 27.0099 41.407 26.9872 41.2564 26.9673C41.1058 26.9474 40.968 26.9375 40.843 26.9375C40.576 26.9375 40.3374 26.9957 40.1271 27.1122C39.9197 27.2259 39.755 27.3849 39.6328 27.5895C39.5135 27.794 39.4538 28.0298 39.4538 28.2969V32H37.6385ZM43.8686 34.4545C43.6385 34.4545 43.4226 34.4361 43.2209 34.3991C43.022 34.3651 42.8572 34.321 42.7266 34.267L43.1357 32.9119C43.3487 32.9773 43.5405 33.0128 43.7109 33.0185C43.8842 33.0241 44.0334 32.9844 44.1584 32.8991C44.2862 32.8139 44.3899 32.669 44.4695 32.4645L44.576 32.1875L42.228 25.4545H44.1371L45.4922 30.2614H45.5604L46.9283 25.4545H48.8501L46.3061 32.7074C46.1839 33.0597 46.0178 33.3665 45.8075 33.6278C45.6001 33.892 45.3374 34.0952 45.0192 34.2372C44.701 34.3821 44.3175 34.4545 43.8686 34.4545Z" fill="white"/>
</svg>
